<svg xmlns="http://www.w3.org/2000/svg" xmlns:xlink="http://www.w3.org/1999/xlink" version="1.1" id="Layer_1" x="0px" y="0px" width="100px" height="100px" viewBox="0 0 100 100" enable-background="new 0 0 100 100" xml:space="preserve">
<path fill="#FFFFFF" d="M42.716,3.488H9.607c-2.894,0-5.241,2.346-5.241,5.241v33.07c0,2.896,2.347,5.241,5.241,5.241h33.109  c2.895,0,5.242-2.346,5.242-5.241V8.729C47.958,5.833,45.611,3.488,42.716,3.488z M41.851,37.167c0,2.083-1.689,3.772-3.772,3.772  H14.246c-2.083,0-3.772-1.689-3.772-3.772V13.362c0-2.083,1.689-3.772,3.772-3.772h23.833c2.083,0,3.772,1.689,3.772,3.772V37.167z"/>
<path fill="#FFFFFF" d="M47.958,90.77c0,2.895-2.347,5.241-5.242,5.241H9.607c-2.894,0-5.241-2.347-5.241-5.241V57.698  c0-2.895,2.347-5.241,5.241-5.241h33.109c2.895,0,5.242,2.347,5.242,5.241V90.77z"/>
<path fill="#FFFFFF" d="M91.434,96.883H58.325c-2.895,0-5.24-2.347-5.24-5.24V58.569c0-2.894,2.346-5.24,5.24-5.24h33.108  c2.896,0,5.241,2.347,5.241,5.24v33.073C96.675,94.536,94.329,96.883,91.434,96.883z M90.567,63.204  c0-2.084-1.689-3.772-3.772-3.772H62.964c-2.084,0-3.773,1.688-3.773,3.772v23.805c0,2.082,1.689,3.771,3.773,3.771h23.831  c2.083,0,3.772-1.689,3.772-3.771V63.204z"/>
<path fill="#FFFFFF" d="M96.675,9.602c0-2.895-2.346-5.241-5.241-5.241H58.325c-2.895,0-5.24,2.347-5.24,5.241v33.071  c0,2.894,2.346,5.241,5.24,5.241h33.108c2.896,0,5.241-2.348,5.241-5.241V9.602z"/>
</svg>