<svg xmlns="http://www.w3.org/2000/svg" xmlns:xlink="http://www.w3.org/1999/xlink" version="1.1" x="0px" y="0px" width="100px" height="100px" viewBox="0 0 100 100" enable-background="new 0 0 100 100" xml:space="preserve">
<g id="Captions">
</g>
<g id="Your_Icon">
	<g>
		<path fill="#FFFFFF" d="M9.978,92.977c-0.756,0-1.512-0.289-2.089-0.866c-1.153-1.153-1.153-3.022,0-4.177l5.874-5.874    c1.152-1.153,3.024-1.153,4.177,0c1.154,1.155,1.154,3.024,0,4.178l-5.873,5.873C11.49,92.688,10.734,92.977,9.978,92.977z"/>
	</g>
	<g>
		<path fill="#FFFFFF" d="M18.257,89.506c-0.762,0-1.518-0.294-2.088-0.863l-4.809-4.808c-0.985-0.983-1.149-2.52-0.396-3.688l9.923-15.404    c0.883-1.373,2.711-1.769,4.083-0.885c1.372,0.885,1.767,2.713,0.884,4.084l-8.632,13.399l1.438,1.438l13.401-8.631    c1.372-0.884,3.201-0.488,4.083,0.884c0.883,1.371,0.488,3.2-0.883,4.083l-15.405,9.921C19.365,89.351,18.81,89.506,18.257,89.506    z"/>
	</g>
	<g>
		<g>
			<polygon fill="#FFFFFF" points="35.055,78.028 63.579,61.905 38.095,36.421 21.975,64.945    "/>
			<path fill="#FFFFFF" d="M35.056,80.982c-0.765,0-1.521-0.298-2.09-0.866l-13.08-13.082c-0.937-0.937-1.135-2.388-0.483-3.542l16.121-28.524     c0.454-0.804,1.258-1.35,2.172-1.474c0.911-0.129,1.834,0.185,2.488,0.839l25.483,25.482c0.653,0.653,0.963,1.573,0.838,2.488     c-0.123,0.915-0.668,1.72-1.472,2.172L36.509,80.6C36.054,80.856,35.553,80.982,35.056,80.982z M25.651,64.445l9.905,9.906     l23.185-13.105L38.755,41.258L25.651,64.445z"/>
		</g>
	</g>
	<g>
		<path fill="#FFFFFF" d="M58.278,59.557c-0.754,0-1.51-0.289-2.088-0.865L41.309,43.81c-0.554-0.554-0.865-1.305-0.865-2.089    s0.311-1.535,0.865-2.089l6.162-6.16c1.155-1.153,3.025-1.152,4.179,0c1.154,1.154,1.152,3.024-0.002,4.178l-4.073,4.071    l10.704,10.705l4.074-4.072c1.154-1.153,3.023-1.154,4.178,0c1.154,1.153,1.154,3.022,0,4.177l-6.162,6.16    C59.792,59.268,59.035,59.557,58.278,59.557z"/>
	</g>
	<g>
		<path fill="#FFFFFF" d="M69.739,58.697L69.739,58.697c-0.781,0-1.533-0.311-2.088-0.865L42.168,32.348c-1.154-1.153-1.154-3.024,0-4.177    L62.451,7.889c1.153-1.154,3.023-1.154,4.177,0c1.152,1.153,1.152,3.024,0,4.177L48.434,30.26l21.305,21.307l18.194-18.194    c1.155-1.154,3.024-1.154,4.178,0c1.153,1.153,1.153,3.024,0,4.177L71.829,57.832C71.276,58.387,70.525,58.697,69.739,58.697z"/>
	</g>
</g>
</svg>