<svg xmlns="http://www.w3.org/2000/svg" xmlns:xlink="http://www.w3.org/1999/xlink" version="1.1" x="0px" y="0px" width="100px" height="100px" viewBox="5.0 -10.0 100.0 110.0" enable-background="new 0 0 100 100" xml:space="preserve">
<g id="Captions">
</g>
<g id="Your_Icon">
	<g>
		<g>
			<path fill="#4a4a4a" d="M75.436,13.318c-0.497-0.533-1.203-0.454-1.569,0.176l-5.187,8.921c-0.366,0.63-0.26,1.582,0.237,2.114     c0,0,15.277,16.385,15.277,28.317c0,18.798-16.089,34.089-34.375,34.089c-18.285,0-34.375-15.291-34.375-34.089     c0-11.976,15.365-28.376,15.365-28.376c0.499-0.531,0.608-1.483,0.244-2.114l-5.161-8.94c-0.364-0.631-1.069-0.712-1.568-0.181     c0,0-21.587,23.046-21.587,39.611c0,26,21.79,47.153,47.082,47.153c25.289,0,47.078-21.153,47.08-47.153     C96.899,36.342,75.436,13.318,75.436,13.318z"/>
		</g>
		<g>
			<path fill="#4a4a4a" d="M57.4,1.325C57.4,0.597,56.804,0,56.075,0H44.254c-0.729,0-1.325,0.597-1.325,1.325v39.454     c0,0.729,0.597,1.325,1.325,1.325h11.821c0.729,0,1.325-0.597,1.325-1.325V1.325z"/>
		</g>
	</g>
</g>
</svg>