<?xml version="1.0" encoding="utf-8"?>
<svg version="1.1" id="Layer_1" xmlns="http://www.w3.org/2000/svg"  x="0px" y="0px"
	 viewBox="0 0 100 100" style="enable-background:new 0 0 100 100;" xml:space="preserve">
<style type="text/css">
	.st0{fill:#FFFFFF;}
</style>
<path class="st0" d="M93.1,82l-58.7,0.1c-0.2,0-0.5,0.1-0.6,0.3L18.6,97.5C18,98.1,17,97.7,17,96.9V83c0-0.5-0.4-0.9-0.9-0.9l-9.2,0
	c-1.7,0-3-1.3-3-3V20.6c0-1.6,1.3-3,3-3h86.3c1.6,0,3,1.3,3,3V79C96.1,80.7,94.8,82,93.1,82z M44.5,66.2c0,1.4,0.4,2.5,1.3,3.4
	c0.9,0.9,2,1.3,3.3,1.3c1.3,0,2.5-0.5,3.4-1.3c0.9-0.9,1.4-2,1.4-3.4c0-1.4-0.5-2.5-1.4-3.4c-0.9-0.9-2-1.3-3.4-1.3
	c-1.3,0-2.4,0.4-3.3,1.3C44.9,63.7,44.5,64.8,44.5,66.2z M46.1,56.8h6.4c-0.2-1.3-0.1-1.9,0.3-3c0.4-1,0.9-2,1.6-3
	c0.6-0.9,1.4-1.8,2.2-2.7c0.8-0.8,1.6-1.7,2.3-2.7c0.7-0.9,1.3-1.9,1.8-2.9c0.5-1,0.7-2.2,0.7-3.5c0-1.7-0.3-3.1-0.8-4.4
	c-0.6-1.3-1.4-2.3-2.4-3.1c-1-0.9-2.3-1.5-3.7-1.9c-1.4-0.4-3-0.6-4.7-0.6c-2.3,0-4.4,0.5-6.2,1.5c-1.9,1-3.5,2.2-4.8,3.8l4,3.6
	c0.9-1,1.9-1.7,2.9-2.3c1.1-0.6,2.2-0.8,3.5-0.8c1.6,0,2.8,0.4,3.8,1.3c0.9,0.9,1.3,2.1,1.3,3.5c0,0.9-0.2,1.8-0.7,2.6
	c-0.5,0.8-1,1.6-1.7,2.5c-0.7,0.8-1.4,1.7-2.2,2.5c-0.8,0.9-1.5,1.8-2.1,2.8c-0.6,1-1.1,2.1-1.4,3.3C45.9,54.6,45.9,55.4,46.1,56.8z
	"/>
</svg>
