<svg xmlns="http://www.w3.org/2000/svg" xmlns:xlink="http://www.w3.org/1999/xlink" version="1.1" id="Layer_1" x="0px" y="0px" width="100px" height="100px" viewBox="5.0 -10.0 100.0 115.0" enable-background="new 0 0 100 100" xml:space="preserve">
<g id="XMLID_19_">
	<g>
		<g id="XMLID_20_">
			<g>
				<path fill="#FFFFFF" d="M81.466,61.651c-2.251-1.776-5.353-3.575-9.589-4.733c-10.857-2.979-16.109-4.171-17.069-7.846      c4.679-3.905,8.452-11.519,8.452-17.874c0-8.993-6.995-16.761-13.947-16.761c-6.962,0-14.321,7.294-14.321,16.275      c0,6.354,3.42,14.222,7.889,18.261c-0.033,0.143-0.077,0.265-0.121,0.397c-1.17,3.432-6.422,4.645-16.98,7.547      c-4.227,1.158-7.339,2.957-9.59,4.733H81.466z M87.357,70.479h-75.03v15.139c0,0.485,0.055,0.894,0.133,1.225h74.775      c0.078-0.331,0.122-0.739,0.122-1.225V70.479z M96.185,13.225v72.393c0,5.826-3.1,10.052-7.37,10.052H10.882      C6.6,95.669,3.5,91.443,3.5,85.617V13.225c0-5.827,3.1-10.053,7.382-10.053h77.933C93.085,3.172,96.185,7.397,96.185,13.225z"/>
				<path fill="#FFFFFF" d="M43.332,49.371h-0.573c0.044-0.133,0.088-0.255,0.121-0.397C43.023,49.116,43.178,49.238,43.332,49.371z"/>
			</g>
		</g>
	</g>
</g>
</svg>