<svg xmlns="http://www.w3.org/2000/svg" xmlns:xlink="http://www.w3.org/1999/xlink" version="1.1" id="Layer_1" x="0px" y="0px" width="100px" height="85.7142857143px" viewBox="5.6 -9.6 112.0 129.6" enable-background="new 0 0 112 96" xml:space="preserve">
<path fill="#FFFFFF" d="M42,86c-0.752,0-1.472-0.42-1.812-1.148c-0.468-1-0.04-2.191,0.96-2.66L54.536,75.9c2.552-1.205,6.403-1.205,8.948,0  l9.764,4.588c1.447,0.684,4.088,0.68,5.54,0l9.756-4.588c2.548-1.209,6.384-1.209,8.933,0l13.367,6.291  c1,0.469,1.424,1.664,0.952,2.66c-0.468,1-1.655,1.428-2.655,0.957l-13.373-6.297c-1.447-0.684-4.084-0.68-5.531,0l-9.752,4.596  c-2.561,1.201-6.404,1.201-8.94,0l-9.765-4.596c-1.451-0.68-4.096-0.68-5.543,0l-13.388,6.297C42.58,85.936,42.292,86,42,86z"/>
<path fill="#FFFFFF" d="M42,70c-0.752,0-1.472-0.42-1.812-1.148c-0.468-1-0.04-2.191,0.96-2.66L54.536,59.9c2.552-1.205,6.403-1.205,8.948,0  l9.764,4.588c1.447,0.684,4.088,0.684,5.54,0l9.756-4.588c2.548-1.209,6.384-1.209,8.933,0l13.367,6.291  c1,0.469,1.424,1.664,0.952,2.66c-0.468,1-1.655,1.428-2.655,0.957l-13.373-6.297c-1.447-0.68-4.084-0.68-5.531,0l-9.752,4.596  c-2.561,1.201-6.404,1.201-8.94,0l-9.765-4.596c-1.451-0.68-4.096-0.68-5.543,0l-13.388,6.297C42.58,69.936,42.292,70,42,70z"/>
<path fill="#FFFFFF" d="M42,54c-0.752,0-1.472-0.42-1.812-1.148c-0.468-1-0.04-2.191,0.96-2.66l13.388-6.295c2.552-1.2,6.403-1.2,8.948,0  l9.764,4.592c1.447,0.684,4.088,0.68,5.54,0l9.756-4.592c2.548-1.204,6.384-1.204,8.933,0l13.367,6.295  c1,0.469,1.424,1.664,0.952,2.66c-0.468,1-1.655,1.429-2.655,0.957l-13.373-6.296c-1.447-0.684-4.084-0.68-5.531,0l-9.752,4.595  c-2.561,1.201-6.404,1.201-8.94,0l-9.765-4.595c-1.451-0.68-4.096-0.68-5.543,0l-13.388,6.296C42.58,53.936,42.292,54,42,54z"/>
<path fill="#FFFFFF" d="M42,38c-0.752,0-1.472-0.424-1.812-1.148c-0.468-1-0.04-2.192,0.96-2.66l13.388-6.296c2.552-1.2,6.403-1.2,8.948,0  l9.764,4.592c1.447,0.684,4.088,0.684,5.54,0l9.756-4.592c2.548-1.204,6.384-1.204,8.933,0l13.367,6.296  c1,0.468,1.424,1.664,0.952,2.66c-0.468,1-1.655,1.432-2.655,0.956l-13.373-6.296c-1.447-0.684-4.084-0.68-5.531,0l-9.752,4.596  c-2.561,1.2-6.404,1.2-8.94,0l-9.765-4.596c-1.451-0.68-4.096-0.68-5.543,0l-13.388,6.296C42.58,37.94,42.292,38,42,38z"/>
<path fill="#FFFFFF" d="M42,22c-0.752,0-1.472-0.424-1.812-1.148c-0.468-1-0.04-2.192,0.96-2.66l13.388-6.296c2.552-1.2,6.403-1.2,8.948,0  l9.764,4.592c1.447,0.684,4.088,0.68,5.54,0l9.756-4.592c2.548-1.204,6.384-1.204,8.933,0l13.367,6.296  c1,0.468,1.424,1.664,0.952,2.66c-0.468,1-1.655,1.428-2.655,0.956l-13.373-6.296c-1.447-0.68-4.084-0.68-5.531,0l-9.752,4.596  c-2.561,1.2-6.404,1.2-8.94,0l-9.765-4.596c-1.451-0.68-4.096-0.68-5.543,0l-13.388,6.296C42.58,21.94,42.292,22,42,22z"/>
<path fill="#FFFFFF" d="M75.252,40.932c0.28,1.324,0.477,2.68,0.592,4.056c0.072,0,0.1,0.012,0.172,0.012c0.601,0,1-0.1,1.084-0.136l6.4-3.012  c-0.132-0.848-0.244-1.708-0.416-2.54l-0.893,0.416c-1.779,0.84-3.916,1.28-6.172,1.28C75.752,41.008,75.516,40.944,75.252,40.932  L75.252,40.932z"/>
<path fill="#FFFFFF" d="M12,48c0,16.136,12.812,29.296,28.788,29.936l12.044-5.664c1.78-0.836,3.916-1.279,6.172-1.279c0.688,0,1.336,0.115,2,0.199  c0.912-0.752,1.76-1.563,2.584-2.411l-3.508-1.652c-0.076-0.028-0.46-0.132-1.076-0.132c-0.615,0-0.992,0.104-1.084,0.14  L44.548,73.42c-0.804,0.385-1.664,0.576-2.552,0.576c-2.312,0-4.444-1.352-5.428-3.439c-1.408-3-0.116-6.584,2.876-7.984  l13.384-6.297C54.608,55.439,56.744,55,59,55s4.4,0.439,6.172,1.275l4.86,2.289c0.312-0.82,0.584-1.648,0.827-2.5  c-0.336-0.125-0.711-0.188-1.023-0.336l-9.764-4.588C60,51.1,59.616,51,59.008,51c-0.6,0-0.992,0.1-1.084,0.141l-13.372,6.287  C43.752,57.809,42.888,58,42,58c-2.312,0-4.444-1.352-5.428-3.436c-1.408-3.008-0.116-6.584,2.876-7.993l13.384-6.296  c1.78-0.836,3.916-1.28,6.172-1.28c2.26,0,4.404,0.444,6.172,1.28l6.416,3.016c-0.18-1.092-0.412-2.164-0.695-3.216  c-0.345-0.124-0.732-0.192-1.061-0.344l-9.768-4.592c-0.068-0.032-0.461-0.136-1.061-0.136c-0.607,0-1,0.104-1.088,0.14  l-13.372,6.288c-0.804,0.38-1.664,0.572-2.552,0.572c-2.312,0-4.444-1.352-5.428-3.44c-1.404-3.004-0.116-6.584,2.876-7.988  l13.384-6.296c1.672-0.784,3.668-1.188,5.771-1.24c-1.3-0.868-2.684-1.616-4.116-2.276l-9.932,4.668  c-0.8,0.384-1.664,0.576-2.552,0.576c-2.312,0-4.444-1.352-5.428-3.44c-0.604-1.3-0.68-2.696-0.368-3.984  C22.428,21.28,12,33.44,12,48z"/>
<path fill="#FFFFFF" d="M82.195,55.729c-1.779,0.844-3.916,1.279-6.172,1.279c-0.428,0-0.819-0.092-1.244-0.124  c-0.312,1.156-0.68,2.284-1.107,3.384l1.28,0.601c0.071,0.032,0.46,0.128,1.071,0.128c0.601,0,0.992-0.096,1.08-0.137l5.584-2.631  c0.256-1,0.477-2.009,0.656-3.041L82.195,55.729L82.195,55.729z"/>
<path fill="#FFFFFF" d="M67.148,25.2l7.804,3.672C75.023,28.9,75.412,29,76.023,29c0.601,0,0.992-0.1,1.08-0.136l1.828-0.86  c-0.58-1.064-1.211-2.092-1.884-3.096c-0.348,0.024-0.664,0.1-1.024,0.1c-2.256,0-4.399-0.44-6.172-1.28l-9.771-4.596  c-0.04-0.012-0.148-0.044-0.32-0.076C62.508,20.752,64.992,22.82,67.148,25.2z"/>
<path fill="#FFFFFF" d="M36.576,86.564c-0.78-1.664-0.708-3.492-0.004-5.041C20.404,78.916,8,64.9,8,48c0-18.244,14.448-33.128,32.5-33.924  l12.332-5.8c0.42-0.2,0.916-0.296,1.376-0.452C50.344,6.648,46.252,6,42,6C18.84,6,0,24.84,0,48s18.84,42,42,42l0,0  C39.688,90,37.56,88.648,36.576,86.564z"/>
<path fill="#FFFFFF" d="M62.828,84.42l-2.752-1.288C60,83.1,59.616,83,59,83s-0.992,0.1-1.084,0.141l-13.372,6.287C43.752,89.809,42.892,90,42,90  C49.584,90,56.676,87.952,62.828,84.42z"/>
<path fill="#FFFFFF" d="M75.688,72.977c-2.123-0.049-4.147-0.453-5.836-1.252l-2.483-1.173c-0.58,0.652-1.173,1.288-1.796,1.9l7.615,3.584  C74.072,75.057,74.908,74.036,75.688,72.977z"/>
</svg>