<svg xmlns="http://www.w3.org/2000/svg" xmlns:xlink="http://www.w3.org/1999/xlink" version="1.1" id="Layer_1" x="0px" y="0px" width="100px" height="100px" viewBox="0 0 100 100" enable-background="new 0 0 100 100" xml:space="preserve">
<g id="XMLID_7_">
	<g id="XMLID_8_">
		<g id="XMLID_9_">
			<g id="XMLID_10_">
				<g>
					<g id="XMLID_29_">
						<g>
							<path fill="#4a4a4a" d="M90.67,56.17V77c0,4.96-3.78,9-8.439,9H73.64H63.57H26.14h-7.69c-4.66,0-8.44-4.04-8.44-9V27c0-4.96,3.78-9,8.44-9         h63.78c4.659,0,8.439,4.04,8.439,9v7h-6v-7c0-1.65-1.09-3-2.439-3H51.06H18.45c-1.35,0-2.44,1.35-1.77,3.33v50         C16.01,78.65,17.1,80,18.45,80h4.51c2.21-9.26,7.1-17.03,13.76-21.93l0.29-0.21c0.34,0.37,0.69,0.72,1.05,1.04         c3.34,3.09,7.68,4.79,12.23,4.79c4.57,0,8.91-1.7,12.2-4.76c0.46-0.42,0.89-0.86,1.3-1.32l0.7,0.46         c6.609,4.87,11.49,12.61,13.72,21.79L78.24,80h3.99c1.35,0,2.439-1.35,2.439-3l0.13-20.95L90.67,56.17z"/>
							<path fill="#4a4a4a" d="M37.83,54.08c-1.7-2.5-2.6-5.43-2.6-8.45c0-8.3,6.75-15.05,15.06-15.05c8.3,0,15.06,6.75,15.06,15.05         c0,3.02-0.899,5.94-2.6,8.45c-0.64,0.96-1.4,1.83-2.26,2.61c-0.01,0.01-0.021,0.02-0.03,0.03         c-2.75,2.56-6.36,3.97-10.17,3.97c-3.79,0-7.41-1.42-10.21-4C39.27,55.96,38.51,55.07,37.83,54.08z"/>
							<polygon fill="#4a4a4a" points="98.92,51.53 95.79,55.74 87.55,49.61 79.31,55.74 76.17,51.53 87.46,43.13 87.55,43.24 87.63,43.13                 "/>
						</g>
					</g>
				</g>
			</g>
		</g>
	</g>
</g>
</svg>